<svg width="32" height="32" viewBox="0 0 32 32" fill="none" xmlns="http://www.w3.org/2000/svg">
<path d="M18.7144 9.41812C18.3556 9.41812 18.0115 9.56064 17.7579 9.81434C17.5042 10.068 17.3616 10.4121 17.3616 10.7709C17.3616 11.1297 17.5042 11.4737 17.7579 11.7274C18.0115 11.9811 18.3556 12.1237 18.7144 12.1237H30.4384C30.7972 12.1237 31.1413 11.9811 31.3949 11.7274C31.6486 11.4737 31.7912 11.1297 31.7912 10.7709C31.7912 10.4121 31.6486 10.068 31.3949 9.81434C31.1413 9.56064 30.7972 9.41812 30.4384 9.41812H18.7144ZM18.7144 14.8292C18.3556 14.8292 18.0115 14.9717 17.7579 15.2254C17.5042 15.4791 17.3616 15.8232 17.3616 16.182C17.3616 16.5407 17.5042 16.8848 17.7579 17.1385C18.0115 17.3922 18.3556 17.5347 18.7144 17.5347H26.831C27.1898 17.5347 27.5339 17.3922 27.7876 17.1385C28.0413 16.8848 28.1838 16.5407 28.1838 16.182C28.1838 15.8232 28.0413 15.4791 27.7876 15.2254C27.5339 14.9717 27.1898 14.8292 26.831 14.8292H18.7144ZM18.7144 20.2403C18.3556 20.2403 18.0115 20.3828 17.7579 20.6365C17.5042 20.8902 17.3616 21.2343 17.3616 21.593C17.3616 21.9518 17.5042 22.2959 17.7579 22.5496C18.0115 22.8033 18.3556 22.9458 18.7144 22.9458H21.4199C21.7787 22.9458 22.1228 22.8033 22.3765 22.5496C22.6302 22.2959 22.7727 21.9518 22.7727 21.593C22.7727 21.2343 22.6302 20.8902 22.3765 20.6365C22.1228 20.3828 21.7787 20.2403 21.4199 20.2403H18.7144Z" fill="black"/>
<path d="M13.4721 29.1527C12.3686 30.2562 10.9626 31.0077 9.43198 31.3122C7.90136 31.6167 6.31482 31.4605 4.87296 30.8634C3.4311 30.2663 2.19867 29.255 1.3315 27.9575C0.464325 26.66 0.00135184 25.1345 0.00111616 23.5739L1.33035e-06 18.8388H3.15599V23.5728C3.15599 24.8286 3.65486 26.033 4.54287 26.921C5.43087 27.809 6.63526 28.3079 7.89108 28.3079C9.14691 28.3079 10.3513 27.809 11.2393 26.921C12.1273 26.033 12.6262 24.8286 12.6262 23.5728L12.6251 18.8399H15.7833L15.7833 23.5739C15.7858 24.6106 15.5828 25.6376 15.1859 26.5954C14.789 27.5531 14.2061 28.4227 13.471 29.1538L13.4721 29.1527ZM9.47019 23.5728H6.31421L6.31309 7.79172L9.47019 7.7906L9.47019 23.5728ZM15.7844 12.5246L12.6273 12.5257L12.6262 7.79283C12.6373 7.16424 12.523 6.53973 12.2902 5.95576C12.0573 5.37178 11.7105 4.84002 11.2699 4.39152C10.8293 3.94302 10.3039 3.58675 9.72412 3.3435C9.1444 3.10025 8.52203 2.9749 7.89334 2.97475C7.26464 2.9746 6.64222 3.09966 6.06237 3.34264C5.48253 3.58561 4.95688 3.94163 4.5161 4.38993C4.07532 4.83822 3.72824 5.36981 3.4951 5.95368C3.26196 6.53755 3.14744 7.162 3.15822 7.7906L3.1571 12.5257H0.00111643L0 7.7906C0.026449 5.71523 0.869487 3.73383 2.34649 2.27563C3.8235 0.817432 5.81553 -0.000146718 7.89108 1.97487e-08C9.96662 0.000146757 11.9585 0.818006 13.4353 2.27641C14.9121 3.73482 15.7549 5.71634 15.7811 7.79172L15.7822 12.5246L15.7833 12.5257L15.7844 12.5246Z" fill="black"/>
</svg>
